<svg height="24" viewBox="0 0 24 24" width="24" xmlns="http://www.w3.org/2000/svg">
<path fill="none" d="M0,0h24v24H0V0z"/>
<path d="M17,12l-0.2-0.1V9.1c0-0.2-0.1-0.3-0.3-0.3c-0.2,0-0.3,0.1-0.3,0.3v2.3L15,10.7c-0.2-0.1-0.3-0.3-0.4-0.5l-0.8-2.5
	c0,0,0-0.1-0.1-0.1c-0.1-0.2-0.3-0.4-0.6-0.4l-2.8,0c-0.3,0-0.6,0.2-0.6,0.6H9.5V7.5c0-0.2-0.2-0.4-0.4-0.4h-2
	c-0.2,0-0.4,0.2-0.4,0.4v2c0,0.2,0.2,0.4,0.4,0.4h0.3v2.5c0,0.4,0.3,0.6,0.6,0.6h0.8c0.3,0,0.6-0.3,0.6-0.6v-0.2h0.2V14l-0.1,2.3
	c0,0.3-0.1,0.7-0.3,0.9l-2.1,3.4c-0.1,0.2-0.1,0.4-0.1,0.6c0.1,0.2,0.2,0.3,0.4,0.4l0.7,0.2c0.1,0,0.2,0,0.2,0
	c0.3,0,0.7-0.2,0.8-0.5l2-3.5c0.2-0.3,0.3-0.8,0.3-1.1l0-1.9l0.6,0L13,16c0.1,0.2,0.2,0.6,0.2,0.9l-0.6,3.6c0,0.2,0,0.4,0.1,0.5
	c0.1,0.1,0.3,0.2,0.5,0.2c0,0,0.1,0,0.1,0l0.7-0.1c0.4-0.1,0.7-0.4,0.8-0.8l0.5-3.6c0-0.3,0-0.8-0.2-1.2l-1.2-2.6v-0.8l2.3,1.2v8.3
	c0,0.2,0.1,0.3,0.3,0.3c0.2,0,0.3-0.1,0.3-0.3v-8.3c0.1-0.1,0.2-0.1,0.3-0.2l0.2-0.3C17.4,12.6,17.3,12.2,17,12L17,12z M9.5,11.5v-3
	h0.2v3H9.5z M9.5,11.5 M11.4,6.6c1.3,0,2.3-1,2.3-2.3c0-1.3-1-2.3-2.3-2.3c-1.3,0-2.3,1-2.3,2.3C9.1,5.5,10.1,6.6,11.4,6.6L11.4,6.6
	z M11.4,6.6"/>
</svg>
