<?xml version="1.0" encoding="utf-8"?>
<!-- Generator: Adobe Illustrator 18.0.0, SVG Export Plug-In . SVG Version: 6.00 Build 0)  -->
<!DOCTYPE svg PUBLIC "-//W3C//DTD SVG 1.1//EN" "http://www.w3.org/Graphics/SVG/1.1/DTD/svg11.dtd">
<svg version="1.1" id="Layer_1" xmlns="http://www.w3.org/2000/svg" xmlns:xlink="http://www.w3.org/1999/xlink" x="0px" y="0px"
	 viewBox="0 0 24 24" enable-background="new 0 0 24 24" xml:space="preserve">
<path fill="#FFFFFF" d="M13.7,0.3c0,0,0.8,2.9,0.8,5.3c0,2.3-1.5,4.1-3.8,4.1c-2.3,0-4-1.8-4-4.1l0-0.4c-2.2,2.6-3.6,6.1-3.6,9.8
	c0,4.9,3.9,8.8,8.8,8.8s8.8-3.9,8.8-8.8C20.8,9,18,3.7,13.7,0.3z M11.7,20.4c-2,0-3.5-1.5-3.5-3.5c0-1.8,1.2-3,3.1-3.4
	c2-0.4,4-1.3,5.1-2.8c0.4,1.4,0.7,2.9,0.7,4.5C17,18.1,14.6,20.4,11.7,20.4z"/>
<path fill="none" d="M0,0h24v24H0V0z"/>
</svg>
