<svg fill="#ffffff" height="24" viewBox="0 0 24 24" width="24" xmlns="http://www.w3.org/2000/svg">
    <path
        d="M21.1,5.1c-0.9-1.1-2.2-1.8-4.1-2c-0.2,0-0.3,0-0.5,0c-1.7,0-3.4,0.8-4.4,2.1c-1.1-1.3-2.7-2.1-4.4-2.1c-0.2,0-0.3,0-0.5,0 C5.1,3.4,3.8,4,2.9,5.1C2.1,6.3,1.8,7.8,2.1,9.6c0.1,0.7,0.4,1.4,0.9,2.2h2.8l0.3-4.7c0-0.4,0.3-0.7,0.7-0.7c0.4,0,0.7,0.2,0.8,0.5 l2.3,6.9l1.3-5c0.1-0.3,0.4-0.6,0.8-0.6h0c0.4,0,0.7,0.2,0.8,0.6l0.8,3l0.7-1.2c0.1-0.2,0.3-0.3,0.6-0.4c0.2,0,0.5,0,0.6,0.2 l0.8,0.8h1.5c0.4,0,0.8,0.3,0.8,0.8c0,0.4-0.3,0.8-0.8,0.8h-1.8c-0.2,0-0.4-0.1-0.5-0.2L15,12.3l-1.2,1.9c-0.2,0.3-0.5,0.4-0.8,0.4 c-0.3,0-0.6-0.3-0.6-0.6l-0.5-1.9l-1.2,4.6c-0.1,0.3-0.4,0.6-0.7,0.6c0,0,0,0,0,0c-0.3,0-0.6-0.2-0.7-0.5l-1.8-5.6l-0.1,1.4 c0,0.4-0.4,0.7-0.8,0.7H4.1c1.4,1.7,3.2,3.4,4.8,4.9L9,18.4c0.8,0.7,1.5,1.4,1.9,1.9c0.1,0.1,0.6,0.7,1.2,0.7c0.6,0,1.1-0.6,1.2-0.7 c0.5-0.5,1.2-1.2,2-1.9c2.8-2.6,6.3-5.9,6.7-8.6C22.2,7.8,21.9,6.3,21.1,5.1L21.1,5.1z M21.1,5.1"/>
    <path d="M0,0h24v24H0V0z" fill="none"/>
</svg>