<svg fill="#ffffff" height="24" viewBox="0 0 24 24" width="24" xmlns="http://www.w3.org/2000/svg">
<path fill="none" d="M0,0h24v24H0V0z"/>
<path d="M8.7,6h5C13.9,6,14,5.9,14,5.7c0-0.2-0.1-0.3-0.3-0.3h-5c-0.2,0-0.3,0.1-0.3,0.3C8.4,5.9,8.5,6,8.7,6L8.7,6z M2.7,9.1h5
	C7.9,9.1,8,9,8,8.8c0-0.2-0.1-0.3-0.3-0.3h-5c-0.2,0-0.3,0.1-0.3,0.3C2.4,9,2.5,9.1,2.7,9.1L2.7,9.1z M4.5,12.4
	c0,0.2,0.1,0.3,0.3,0.3h5c0.2,0,0.3-0.1,0.3-0.3c0-0.2-0.1-0.3-0.3-0.3h-5C4.6,12.1,4.5,12.2,4.5,12.4L4.5,12.4z M6.7,16.1H2.3
	c-0.2,0-0.3,0.1-0.3,0.3c0,0.2,0.1,0.3,0.3,0.3h4.3c0.2,0,0.3-0.1,0.3-0.3C7,16.2,6.8,16.1,6.7,16.1L6.7,16.1z M17.5,8
	c1,0,1.7-0.8,1.7-1.7c0-1-0.8-1.7-1.7-1.7c-1,0-1.7,0.8-1.7,1.7C15.7,7.2,16.5,8,17.5,8L17.5,8z M20.3,7.5c-1,1.4-2.3,1.6-3.8,0.7
	c-0.1-0.1-0.5-0.3-0.6-0.4C13.6,6.5,11.3,7,9.8,9.2c-0.7,0.9,0.9,1.8,1.5,0.9C12.1,9,13.1,8.7,14.2,9c-0.6,1-1.1,2-1.8,3.4
	c-0.7,1.4-2.3,2.5-3.7,1.6c-1.1-0.6-2,0.9-1,1.5c2,1.2,4.4,0.5,5.6-1.1c0,0,0.1,0,0.1,0.1c1,0.3,2.3,1.3,2.7,1.6
	c0.4,0.3,1.1,2,1.5,2.8c0.5,1,2.1,0.3,1.6-0.7c-0.5-1-1.2-2.8-1.8-3.3c-0.5-0.4-1.4-1.1-2.2-1.5c0.5-1,1.1-2.1,1.7-3.1
	c1.9,0.6,3.7-0.1,4.9-1.9C22.5,7.5,21,6.6,20.3,7.5L20.3,7.5z"/>
</svg>
