<svg fill="#000000" height="24" viewBox="0 0 24 24" width="24" xmlns="http://www.w3.org/2000/svg">
<path fill="none" d="M0,0h24v24H0V0z"/>
<path d="M19.2,11.4l1.5-1.6l-1.3-1.2l-1.5,1.6l-3.8,0.9l0.4,1.7l2.9-0.7l-0.8,5.7L3.3,20.3L3.5,22h16.3v-4.6
	l-1.3,0.2L19.2,11.4z M19.2,11.4 M7.3,8.1h1.6l-1,4.2l3.3,0.8l0.9,4.6l1.7-0.3l-1.1-5.7L10,11l1.1-4.6H6.6L3.8,8.8L5,10.1L7.3,8.1z
	 M7.3,8.1 M9.3,13.9l-1.7-0.4l-0.2,0.9l-3.2-0.8l-0.4,1.7l5,1.3L9.3,13.9z M9.3,13.9 M11.6,8.8l2.2,0.5l2.9-1.6l-0.8-1.5l-2.3,1.3
	L12,7.1L11.6,8.8z M11.6,8.8 M13.2,3.8c0,1-0.8,1.8-1.8,1.8c-1,0-1.8-0.8-1.8-1.8c0-1,0.8-1.8,1.8-1.8C12.4,2,13.2,2.8,13.2,3.8
	L13.2,3.8z M13.2,3.8"/>
</svg>
