<svg height="24" viewBox="0 0 24 24" width="24" xmlns="http://www.w3.org/2000/svg">
<path fill="none" d="M0,0h24v24H0V0z"/>
<g>
	<path d="M7.5,19.9C7.5,21,6.6,22,5.5,22c-1.1,0-2.1-0.9-2.1-2.1c0-1.1,0.9-2.1,2.1-2.1C6.6,17.8,7.5,18.7,7.5,19.9L7.5,19.9z
		 M14.6,6.2c1.1,0,2.1-0.9,2.1-2.1S15.8,2,14.6,2c-1.1,0-2.1,0.9-2.1,2.1S13.5,6.2,14.6,6.2L14.6,6.2z M20.5,11.4l-1.8-2.8
		c-0.1-0.1-0.2-0.2-0.3-0.3l-2-1c-0.9-0.6-3.7-1.2-4.8-0.9c0,0,0,0,0,0c-0.1,0-0.2,0.1-0.3,0.1L8.1,8.6C8,8.7,8,8.7,8,8.7l-2.2,2
		c-0.3,0.3-0.4,0.8,0,1.2c0.2,0.2,0.4,0.3,0.6,0.3c0.2,0,0.4-0.1,0.6-0.2l2.1-2l1.8-1.2l-2.1,5.1l-0.9,1.7c-0.3,0.5-0.1,1.1,0.4,1.4
		C8.5,17,8.6,17,8.8,17c0.4,0,0.7-0.2,0.9-0.6l0.1-0.3l0,0l1.7-2.5l-0.7,3l-1.4,3.9c-0.2,0.5,0.1,1.1,0.6,1.3c0.1,0,0.2,0.1,0.4,0.1
		c0.4,0,0.8-0.3,1-0.7l2.7-7.6c0-0.1,0-0.1,0-0.2L15.8,9c0,0,0,0,0-0.1l1.5,0.8l1.7,2.7c0.2,0.2,0.4,0.4,0.7,0.4
		c0.2,0,0.3,0,0.5-0.1C20.6,12.3,20.7,11.8,20.5,11.4L20.5,11.4z M20.5,11.4"/>
</g>
</svg>
