<svg style="width:24px;height:24px" viewBox="0 0 24 24">
	<path d="M16.5,11.5c0.1,1.1,0,2.3-0.4,3.4c-0.4,1.3-1.1,2.6-2.1,3.4c-1,0.9-2.2,1.5-3.4,1.7c-1.3,0.4-2.8,0.4-4.3,0
	c-1.1-0.2-2.1-0.9-3-1.5c-1-0.7-1.7-1.7-2.2-2.8c-0.9-1.6-1.1-3.5-0.7-5.4c0.2-0.7,0.5-1.5,0.7-2.1c1-1.9,2.7-3.4,4.6-4.1
	c1.8-0.6,3.8-0.6,5.6,0c1.1,0.4,1.9,1,2.7,1.7l0,0l0,0c-0.2,0.2-0.5,0.5-0.9,0.9c-0.5,0.5-1,1-1.5,1.5c-0.5-0.5-1.1-0.9-1.7-1.1
	c-0.9-0.2-1.7-0.2-2.4,0c-1,0.2-1.8,0.7-2.4,1.3c-0.5,0.6-1,1.2-1.2,1.9c-0.4,1-0.4,2.2,0,3.2l0,0l0,0c0,0.1,0,0.1,0.1,0.2
	c0.4,1,1,1.7,1.8,2.3c0.6,0.4,1.2,0.6,1.8,0.9c0.6,0.1,1.3,0.1,1.9,0s1.2-0.4,1.8-0.7l0,0c0.9-0.6,1.5-1.5,1.7-2.6c-1.5,0-3,0-4.5,0
	l0,0l0,0c0-1.1,0-2.2,0-3.2c2.6,0,5.2,0,7.8,0C16.3,10.8,16.5,11.1,16.5,11.5z M23.8,10.6h-2.4V8.1h-1.7v2.4h-2.4v1.7h2.4v2.4h1.7
	v-2.4h2.4V10.6z"/>
</svg>